<svg data-v-0dd9719b="" version="1.0" xmlns="http://www.w3.org/2000/svg" xmlns:xlink="http://www.w3.org/1999/xlink" width="100%" height="100%" viewBox="0 0 340.000000 250.000000" preserveAspectRatio="xMidYMid meet" color-interpolation-filters="sRGB" style="margin: auto;"> <rect data-v-0dd9719b="" x="0" y="0" width="100%" height="100%" fill="#fff" fill-opacity="1" class="background"></rect> <rect data-v-0dd9719b="" x="0" y="0" width="100%" height="100%" fill="url(#watermark)" fill-opacity="1" class="watermarklayer"></rect> <g data-v-0dd9719b="" fill="#01a0e9" class="icon-text-wrapper icon-svg-group iconsvg" transform="translate(48.46332550048828,95)"><g class="iconsvg-imagesvg" transform="translate(0,0)"><g><rect fill="#01a0e9" fill-opacity="0" stroke-width="2" x="0" y="0" width="60" height="60" class="image-rect"></rect> <svg x="0" y="0" width="60" height="60" filtersec="colorsb4176900983" class="image-svg-svg primary" style="overflow: visible;"><svg xmlns="http://www.w3.org/2000/svg" viewBox="0.04000091552734375 -0.00000762939453125 999.9600219726562 999.9600830078125"><path fill="#01A0E9" d="M185.55 413.69c-33.47-39.67-56.31-83.92-65.91-131.01-23.64-2.89-46.76-4.24-69.14-4.05-9.51 56.74-2.17 110.9 24.66 157.38 1.31 2.28 2.67 4.52 4.06 6.73 33.51-12.06 69.11-21.85 106.33-29.05zM164.21 240c35.06 6.32 70.77 15.64 106.62 28.01-9.15-51.09-6.8-100.83 8.42-146.41-19.02-14.32-38.37-27.05-57.85-38.08-36.61 44.38-57.33 94.96-57.33 148.63-.01 2.62.04 5.24.14 7.85zM339.19 106.93c27.2 23 53.47 48.93 78.33 77.56 17.62-48.82 44.52-90.73 80.5-122.59-9.32-21.91-19.71-42.61-31.07-61.9-53.89 20.13-97.13 53.57-123.96 100.05a220.75 220.75 0 0 0-3.8 6.88zM557.26 79.18c12.06 33.51 21.84 69.11 29.05 106.34 39.67-33.47 83.92-56.31 131.01-65.91 2.89-23.64 4.24-46.76 4.05-69.14-56.74-9.51-110.9-2.17-157.38 24.66-2.27 1.3-4.52 2.65-6.73 4.05zM760 164.17c-6.32 35.05-15.64 70.77-28.01 106.61 51.09-9.15 100.83-6.8 146.42 8.42 14.32-19.02 27.05-38.37 38.08-57.85-44.38-36.61-94.96-57.33-148.63-57.33-2.63 0-5.25.05-7.86.15zM893.07 339.15c-23 27.2-48.93 53.47-77.56 78.33 48.82 17.62 90.72 44.52 122.59 80.5 21.91-9.31 42.61-19.71 61.9-31.06-20.13-53.89-53.57-97.13-100.05-123.96-2.28-1.32-4.57-2.59-6.88-3.81zM920.82 557.22c-33.51 12.06-69.11 21.85-106.34 29.05 33.47 39.67 56.31 83.92 65.92 131.01 23.64 2.89 46.76 4.24 69.14 4.05 9.51-56.74 2.17-110.9-24.66-157.38-1.31-2.27-2.66-4.51-4.06-6.73zM835.83 759.96c-35.05-6.32-70.77-15.64-106.61-28.01 9.15 51.09 6.8 100.83-8.42 146.41 19.02 14.32 38.37 27.05 57.85 38.08 36.61-44.38 57.33-94.96 57.33-148.63 0-2.62-.05-5.24-.15-7.85zM660.85 893.03c-27.2-23-53.48-48.93-78.33-77.56-17.62 48.82-44.52 90.73-80.5 122.59 9.31 21.91 19.71 42.61 31.07 61.9 53.89-20.13 97.13-53.57 123.96-100.05 1.31-2.27 2.58-4.57 3.8-6.88zM442.78 920.79c-12.06-33.51-21.84-69.11-29.05-106.34-39.67 33.47-83.92 56.31-131.01 65.91-2.89 23.64-4.24 46.76-4.05 69.14 56.74 9.51 110.9 2.17 157.38-24.66 2.27-1.31 4.51-2.66 6.73-4.05zM240.04 835.79c6.31-35.05 15.64-70.77 28.01-106.61-51.09 9.15-100.83 6.8-146.41-8.42-14.32 19.02-27.05 38.37-38.08 57.85 44.38 36.61 94.96 57.33 148.63 57.33 2.62 0 5.24-.05 7.85-.15zM106.97 660.81c23-27.2 48.93-53.48 77.56-78.33-48.82-17.62-90.72-44.52-122.59-80.5-21.91 9.31-42.61 19.71-61.9 31.07 20.13 53.89 53.57 97.13 100.05 123.96 2.27 1.31 4.57 2.58 6.88 3.8z"></path><g fill="#ABCD01"><path d="M242.7 598.47c-32.26 25.35-61.31 52.51-86.79 80.78 41.59 10.04 86.92 8.06 133.31-4.57a808.703 808.703 0 0 1 32.99-67.52c-27.57-.8-54.18-3.7-79.51-8.69zM112.37 483.17c31 29.49 71.24 50.43 117.73 62.69a810.866 810.866 0 0 1 62.33-41.98c-23.48-14.46-45.07-30.28-64.51-47.27-40.61 5.83-79.35 14.83-115.55 26.56zM172.71 291.6c12.1 41.04 36.48 79.3 70.61 113.16 24.47-2.85 49.5-4.6 74.97-5.19-13.1-24.26-23.89-48.76-32.23-73.19-38.08-15.27-76.13-26.84-113.35-34.78zM320.75 155.86c-10.04 41.59-8.06 86.92 4.57 133.31a808.703 808.703 0 0 1 67.52 32.99c.79-27.56 3.69-54.17 8.68-79.5-25.34-32.26-52.5-61.32-80.77-86.8zM454.13 230.07a810.866 810.866 0 0 1 41.98 62.33c14.46-23.48 30.28-45.07 47.27-64.51-5.82-40.61-14.82-79.35-26.56-115.55-29.49 30.99-50.43 71.24-62.69 117.73zM708.4 172.67c-41.04 12.09-79.3 36.48-113.16 70.61 2.85 24.47 4.6 49.5 5.19 74.97 24.26-13.1 48.76-23.89 73.19-32.23 15.27-38.08 26.84-76.13 34.78-113.35zM844.13 320.71c-41.59-10.04-86.92-8.06-133.31 4.57a808.703 808.703 0 0 1-32.99 67.52c27.56.79 54.17 3.69 79.5 8.68 32.27-25.34 61.32-52.5 86.8-80.77zM887.67 516.79c-31-29.49-71.24-50.43-117.73-62.69a810.866 810.866 0 0 1-62.33 41.98c23.48 14.46 45.07 30.28 64.51 47.27 40.61-5.83 79.35-14.82 115.55-26.56zM827.33 708.36c-12.1-41.04-36.48-79.3-70.61-113.16-24.47 2.85-49.5 4.6-74.97 5.19 13.1 24.26 23.89 48.76 32.23 73.19 38.08 15.27 76.13 26.85 113.35 34.78zM679.29 844.09c10.04-41.59 8.06-86.91-4.57-133.3a808.703 808.703 0 0 1-67.52-32.99c-.79 27.56-3.69 54.17-8.68 79.5 25.34 32.26 52.5 61.31 80.77 86.79zM483.21 887.63c29.49-31 50.43-71.24 62.69-117.73a810.866 810.866 0 0 1-41.98-62.33c-14.46 23.48-30.28 45.07-47.27 64.51 5.83 40.61 14.82 79.35 26.56 115.55zM291.64 827.29c41.04-12.1 79.3-36.48 113.16-70.61a807.05 807.05 0 0 1-5.19-74.97c-24.26 13.1-48.76 23.89-73.19 32.23-15.27 38.08-26.85 76.13-34.78 113.35z"></path></g></svg></svg> <!----></g></g> <g transform="translate(67,5.633747100830078)"><g data-gra="path-name" fill-rule="" class="tp-name iconsvg-namesvg" transform="translate(0,0)"><g transform="scale(1)"><g><path d="M31.78-23.52L31.78-23.52 19.83-23.52Q19.72-22.61 19.37-20.81L19.37-20.81 30.09-20.81Q31.15-20.81 31.8-20.16 32.45-19.51 32.45-18.46L32.45-18.46 32.45-1.27Q32.45 0.28 32.01 1.13 31.57 1.97 30.48 2.43L30.48 2.43Q29.21 2.92 26.23 2.99L26.23 2.99Q24.08 3.06 23.55 1.58L23.55 1.58Q23.13 0.42 23.78-0.07 24.43-0.56 25.88-0.49L25.88-0.49Q26.23-0.49 26.68-0.51 27.14-0.53 27.21-0.53L27.21-0.53Q28.05-0.53 28.05-1.3L28.05-1.3 28.05-16.03Q28.05-16.88 27.18-16.88L27.18-16.88 21.23-16.88 23.13-16.49Q24.79-16.14 24.19-14.55L24.19-14.55Q23.73-13.25 23.34-12.38L23.34-12.38 24.26-12.38Q25.91-12.38 25.91-10.72 25.91-9.07 24.26-9.07L24.26-9.07 19.86-9.07 19.86-6.71 25-6.71Q26.72-6.71 26.72-4.99 26.72-3.27 25-3.27L25-3.27 19.86-3.27 19.86 0.07Q19.86 2.04 17.89 2.04 15.93 2.04 15.93 0.07L15.93 0.07 15.93-3.27 11-3.27Q9.28-3.27 9.28-4.99 9.28-6.71 11-6.71L11-6.71 15.93-6.71 15.93-9.07 11.71-9.07Q10.05-9.07 10.05-10.72 10.05-12.38 11.71-12.38L11.71-12.38 12.8-12.38Q12.52-13.39 12.02-14.59L12.02-14.59Q11.46-16.03 12.94-16.38L12.94-16.38Q13.78-16.66 14.5-16.24 15.22-15.82 15.54-14.94L15.54-14.94Q15.93-14.06 15.68-13.36 15.43-12.66 14.55-12.41L14.55-12.41 14.48-12.38 19.69-12.38Q20.67-15.15 21.02-16.88L21.02-16.88 8.75-16.88Q7.88-16.88 7.88-16.03L7.88-16.03 7.88 0.91Q7.88 3.02 5.77 3.02L5.77 3.02Q3.59 3.02 3.59 0.91L3.59 0.91 3.59-18.46Q3.59-19.51 4.24-20.16 4.89-20.81 5.94-20.81L5.94-20.81 15.15-20.81Q15.43-22.64 15.54-23.52L15.54-23.52 4.22-23.52Q2.21-23.52 2.21-25.52L2.21-25.52Q2.21-27.49 4.22-27.49L4.22-27.49 16-27.49Q16-27.6 16.01-27.83 16.03-28.05 16.03-28.16L16.03-28.16Q16.17-30.52 18.49-30.3L18.49-30.3Q20.85-30.09 20.53-27.7L20.53-27.7Q20.53-27.67 20.51-27.6 20.5-27.53 20.5-27.49L20.5-27.49 31.78-27.49Q33.79-27.49 33.79-25.52L33.79-25.52Q33.79-23.52 31.78-23.52ZM67.68-22.96L67.68-22.96 40.29-22.96Q38.29-22.96 38.29-25.03L38.29-25.03Q38.29-27.04 40.29-27.04L40.29-27.04 51.64-27.04 51.64-28.27Q51.64-30.48 53.89-30.48L53.89-30.48Q56.11-30.48 56.11-28.27L56.11-28.27 56.11-27.04 67.68-27.04Q69.68-27.04 69.68-25.03L69.68-25.03Q69.68-22.96 67.68-22.96ZM46.23-4.04L46.23-4.04Q44.26-1.34 42.08 0.67L42.08 0.67Q40.75 1.79 39.34 0.84L39.34 0.84Q37.3-0.63 39.27-2.36L39.27-2.36Q41.06-4.08 42.33-5.94L42.33-5.94Q43.28-7.59 45.21-6.96L45.21-6.96Q47.67-6.19 46.23-4.04ZM60.54-16.77L60.54-16.77 47.46-16.77Q46.58-16.77 46.58-15.93L46.58-15.93 46.58-13.5Q46.58-12.62 47.46-12.62L47.46-12.62 60.54-12.62Q61.42-12.62 61.42-13.5L61.42-13.5 61.42-15.93Q61.42-16.77 60.54-16.77ZM44.68-20.46L44.68-20.46 63.56-20.46Q64.62-20.46 65.27-19.81 65.92-19.16 65.92-18.11L65.92-18.11 65.92-11.32Q65.92-10.27 65.27-9.62 64.62-8.96 63.56-8.96L63.56-8.96 56.11-8.96 56.11-1.37Q56.11 0.32 55.71 1.2 55.3 2.07 54.18 2.5L54.18 2.5Q52.73 3.02 49.96 3.09L49.96 3.09Q47.64 3.16 47.11 1.48L47.11 1.48Q46.69 0.21 47.41-0.37 48.13-0.95 49.64-0.91L49.64-0.91 50.94-0.91Q51.43-0.95 51.57-1.05 51.71-1.16 51.71-1.51L51.71-1.51 51.71-8.96 44.68-8.96Q43.63-8.96 42.98-9.62 42.33-10.27 42.33-11.32L42.33-11.32 42.33-18.11Q42.33-19.16 42.98-19.81 43.63-20.46 44.68-20.46ZM65.11 0.46L65.11 0.46Q63.14-2.07 61.73-3.83L61.73-3.83Q60.01-5.66 62.37-6.82L62.37-6.82Q63.88-7.56 65.04-6.36L65.04-6.36Q67.36-3.94 69.12-1.69L69.12-1.69Q69.79-0.67 69.54-0.05 69.29 0.56 68.17 1.16L68.17 1.16Q67.18 1.69 66.45 1.53 65.71 1.37 65.11 0.46ZM104.2-21.8L104.2-21.8 92.07-21.8 92.07-18 100.97-18Q102.02-18 102.67-17.35 103.32-16.7 103.32-15.64L103.32-15.64 103.32-5.84Q103.32-2.71 101.46-1.9L101.46-1.9Q100.05-1.34 97.59-1.23L97.59-1.23Q95.13-1.16 94.57-2.88L94.57-2.88Q94.11-4.22 94.85-4.8 95.59-5.38 97.17-5.34L97.17-5.34 98.16-5.34Q98.93-5.34 98.93-5.91L98.93-5.91 98.93-12.97Q98.93-13.82 98.05-13.82L98.05-13.82 92.07-13.82 92.07 0.98Q92.07 3.16 89.89 3.16L89.89 3.16Q87.68 3.16 87.68 0.98L87.68 0.98 87.68-13.82 82.3-13.82Q81.42-13.82 81.42-12.97L81.42-12.97 81.42-3.3Q81.42-1.2 79.31-1.2L79.31-1.2Q77.17-1.2 77.17-3.3L77.17-3.3 77.17-15.64Q77.17-16.7 77.82-17.35 78.47-18 79.52-18L79.52-18 87.68-18 87.68-21.8 75.94-21.8Q73.83-21.8 73.83-23.87 73.83-25.95 75.94-25.95L75.94-25.95 87.64-25.95 87.64-28.41Q87.64-30.62 89.93-30.62L89.93-30.62Q92.14-30.62 92.14-28.41L92.14-28.41 92.14-25.95 104.2-25.95Q106.31-25.95 106.31-23.87 106.31-21.8 104.2-21.8ZM128.29-24.12L128.29-18.49 139.78-18.49Q141.96-18.49 141.96-16.35L141.96-16.35Q141.96-14.13 139.78-14.13L139.78-14.13 130.36-14.13Q132.26-11.53 134.86-9.09 137.46-6.64 140.27-4.85L140.27-4.85Q141.64-4.04 141.82-3.22 142-2.39 141.01-1.2L141.01-1.2Q140.24-0.28 139.46-0.18 138.69-0.07 137.67-0.77L137.67-0.77Q132.43-4.57 128.29-10.34L128.29-10.34 128.29 0.84Q128.29 3.09 126 3.09L126 3.09Q123.68 3.09 123.68 0.84L123.68 0.84 123.68-10.13Q119.53-4.32 114.33-0.6L114.33-0.6Q113.34 0.11 112.57 0 111.8-0.11 111.02-1.02L111.02-1.02Q110.07-2.21 110.27-3.02 110.46-3.83 111.83-4.61L111.83-4.61Q117.74-8.44 121.71-14.13L121.71-14.13 112.29-14.13Q110.11-14.13 110.11-16.35L110.11-16.35Q110.11-18.49 112.29-18.49L112.29-18.49 123.68-18.49 123.68-23.52Q118.3-22.89 114.64-22.68L114.64-22.68Q112.71-22.54 112.18-24.29L112.18-24.29Q111.52-26.58 114.22-26.79L114.22-26.79Q126.95-27.77 134.47-29.81L134.47-29.81Q135.32-30.02 135.86-29.79 136.41-29.57 137.11-28.83L137.11-28.83Q139.36-26.37 136.34-25.59L136.34-25.59Q131.98-24.61 128.29-24.12L128.29-24.12ZM166.15-2.99L166.15-2.99Q166.22-2.78 166.43-2.3 166.64-1.83 166.71-1.62L166.71-1.62Q166.89-1.13 166.36-0.95L166.36-0.95 165.48-0.67 167.84-0.67 167.84-3.69 166.54-3.69Q165.66-3.69 166.15-2.99ZM172.3-1.51L172.3-1.51Q172.76-2.43 173.07-3.16L173.07-3.16Q173.29-3.69 172.69-3.69L172.69-3.69 171.07-3.69 171.07-0.67 173.39-0.67 172.62-0.91Q172.09-1.09 172.3-1.51ZM170.72-10.65L170.72-10.65Q170.3-11 169.56-11.74L169.56-11.74Q168.29-10.48 167.1-9.63L167.1-9.63 171.21-9.63Q172.13-9.63 171.35-10.16L171.35-10.16Q170.93-10.51 170.72-10.65ZM151.63-9.63L151.63-9.63 157.64-9.63Q155.39-11.18 154.51-11.67L154.51-11.67Q151.91-9.81 151.63-9.63ZM156.73-1.62L156.73-1.62Q157.22-2.74 157.36-3.27L157.36-3.27Q157.54-3.8 156.97-3.8L156.97-3.8 155.53-3.8 155.53-0.7 157.71-0.88 157.08-1.05Q156.62-1.23 156.73-1.62ZM159.96-19.16L156.87-19.16Q157.01-18.98 157.15-18.72 157.29-18.46 157.48-18.04 157.68-17.61 157.66-17.38 157.64-17.16 157.43-17.05L157.43-17.05 157.04-16.95 159.96-16.95 159.96-19.16ZM166.29-16.95L166.15-16.98Q166.71-18 167.1-19.16L167.1-19.16 163.86-19.16 163.86-16.95 166.29-16.95ZM157.96-25.17L157.96-25.17 166.08-25.17Q163.44-26.51 161.93-27.67L161.93-27.67Q160.66-26.61 157.96-25.17ZM167.87-14.27L167.87-14.27 149.91-14.27Q148.57-14.27 148.57-15.61 148.57-16.95 149.91-16.95L149.91-16.95 154.3-16.95Q154.23-17.16 153.88-18.04L153.88-18.04Q153.67-18.39 153.79-18.67 153.91-18.95 154.3-19.05L154.3-19.05 154.86-19.16 151.84-19.16Q150.61-19.16 150.61-20.43L150.61-20.43Q150.61-21.62 151.84-21.62L151.84-21.62 159.96-21.62 159.96-22.78 156.23-22.78Q155.29-22.78 155.29-23.77L155.29-23.77 155.29-23.87Q153.28-22.96 149.94-21.9L149.94-21.9Q148.25-21.48 147.59-22.75L147.59-22.75Q146.5-24.61 149.03-25.21L149.03-25.21Q155.6-27.07 159.36-29.88L159.36-29.88Q160.07-30.45 161.19-30.45L161.19-30.45 162.49-30.45Q163.65-30.45 164.43-29.85L164.43-29.85Q168.57-27 175.15-25.42L175.15-25.42Q177.75-24.86 176.45-22.89L176.45-22.89Q175.68-21.62 174.13-22.04L174.13-22.04Q171.35-22.78 168.79-23.91L168.79-23.91 168.79-23.2Q168.79-22.78 168.33-22.78L168.33-22.78 163.86-22.78 163.86-21.62 172.02-21.62Q173.21-21.62 173.21-20.43L173.21-20.43Q173.21-19.16 172.02-19.16L172.02-19.16 170.86-19.16Q170.16-17.96 169.38-16.95L169.38-16.95 174.45-16.95Q175.78-16.95 175.78-15.61 175.78-14.27 174.45-14.27L174.45-14.27 170.96-14.27Q173.46-12.02 176.91-10.65L176.91-10.65Q178.98-9.95 177.93-8.3L177.93-8.3Q177.5-7.59 176.78-7.52 176.06-7.45 175.61-7.66 175.15-7.88 174.34-8.33L174.34-8.33 174.34-7.73Q174.34-7.42 174.02-7.42L174.02-7.42 171.07-7.42 171.07-6.15 176.38-6.15Q177.57-6.15 177.57-4.92 177.57-3.69 176.38-3.69L176.38-3.69 174.23-3.69 175.29-3.45Q176.1-3.23 175.61-2.43L175.61-2.43Q175.46-2.18 175.1-1.56 174.73-0.95 174.55-0.67L174.55-0.67 176.8-0.67Q178.17-0.67 178.17 0.67L178.17 0.67Q178.17 2.04 176.8 2.04L176.8 2.04 162.84 2.04Q161.47 2.04 161.47 0.67L161.47 0.67Q161.47-0.67 162.84-0.67L162.84-0.67 163.97-0.67Q163.76-1.44 163.55-2.04L163.55-2.04Q163.3-2.5 163.48-2.9 163.65-3.3 164.14-3.45L164.14-3.45 165.06-3.69 163.3-3.69Q162.07-3.69 162.07-4.92 162.07-6.15 163.3-6.15L163.3-6.15 167.84-6.15 167.84-7.42 165.52-7.42Q164.85-7.42 164.85-8.09L164.85-8.09 164.85-8.19Q163.13-7.21 162.39-7.31L162.39-7.31Q161.79-7.42 161.44-8.09L161.44-8.09Q161.19-8.51 160.95-8.86L160.95-8.86 160.38-8.33Q159.93-7.91 159.54-8.23L159.54-8.23Q159.4-8.33 159.08-8.6 158.77-8.86 158.63-8.96L158.63-8.96 158.63-8.05Q158.63-7.42 157.96-7.42L157.96-7.42 155.53-7.42 155.53-6.22 159.79-6.22Q160.98-6.22 160.98-4.99L160.98-4.99Q160.98-3.8 159.79-3.8L159.79-3.8 158.17-3.8 159.29-3.52Q160.21-3.27 159.82-2.53L159.82-2.53 159.01-0.98 159.68-1.02Q161.02-1.13 161.02 0.21L161.02 0.21Q161.02 1.44 159.79 1.55L159.79 1.55Q158.38 1.65 147.34 2.53L147.34 2.53Q146.71 2.57 146.44 2.3 146.18 2.04 146.11 1.34L146.11 1.34Q145.93-0.11 147.27-0.14L147.27-0.14Q147.8-0.18 148.99-0.25L148.99-0.25Q148.85-1.13 148.5-2L148.5-2Q148.25-2.5 148.41-2.87 148.57-3.23 149.06-3.34L149.06-3.34Q150.43-3.8 150.96-2.43L150.96-2.43Q151.56-0.88 150.12-0.49L150.12-0.49 149.27-0.28 152.47-0.49 152.47-3.8 147.9-3.8Q146.67-3.8 146.67-4.99L146.67-4.99Q146.67-6.22 147.9-6.22L147.9-6.22 152.47-6.22 152.47-7.42 150.61-7.42Q149.66-7.42 149.66-8.4L149.66-8.4 149.66-8.51Q147.45-7.17 146.67-8.3L146.67-8.3Q146.6-8.37 146.5-8.51 146.39-8.65 146.32-8.72L146.32-8.72Q145.23-9.67 146.78-10.27L146.78-10.27Q149.91-11.67 151.98-13.54L151.98-13.54Q152.72-14.2 153.98-14.2L153.98-14.2 155.85-14.2Q159.89-12.02 162.18-10.34L162.18-10.34Q166.11-12.09 167.87-14.27Z" transform="translate(-2.2100000381469727, 30.6200008392334)"></path></g> <!----> <!----> <!----> <!----> <!----> <!----> <!----></g></g> <g data-gra="path-slogan" fill-rule="" class="tp-slogan iconsvg-slogansvg" fill="#01a0e9" transform="translate(42.756675720214844,39.78000259399414)"><!----> <!----> <g transform="scale(1, 1)"><g transform="scale(1)"><path d="M2.30-8.58L6.61-1.64L6.61-8.58L7.73-8.58L7.73 0L6.42 0L2.06-6.94L2.02-6.94L2.02 0L0.89 0L0.89-8.58L2.30-8.58ZM15.19 0L14.34-2.48L10.88-2.48L9.98 0L8.81 0L12.05-8.58L13.36-8.58L16.45 0L15.19 0ZM12.61-7.31L11.25-3.52L13.92-3.52L12.66-7.31L12.61-7.31ZM18.89-8.58L23.20-1.64L23.20-8.58L24.33-8.58L24.33 0L23.02 0L18.66-6.94L18.61-6.94L18.61 0L17.48 0L17.48-8.58L18.89-8.58ZM25.41-1.92L25.41-2.77L26.48-2.77L26.48-2.16Q26.48-0.75 27.80-0.75L27.80-0.75Q29.16-0.75 29.16-2.25L29.16-2.25L29.16-8.58L30.33-8.58L30.33-2.30Q30.28 0.09 27.84 0.14L27.84 0.14Q25.55 0.09 25.41-1.92L25.41-1.92ZM32.30-8.58L33.47-8.58L33.47 0L32.30 0L32.30-8.58ZM36.84-8.58L41.16-1.64L41.16-8.58L42.28-8.58L42.28 0L40.97 0L36.61-6.94L36.56-6.94L36.56 0L35.44 0L35.44-8.58L36.84-8.58ZM50.48-3.61L47.86-3.61L47.86-4.59L51.61-4.59L51.61 0L50.86 0L50.58-1.08Q49.59 0.09 47.77 0.14L47.77 0.14Q46.03 0.14 45.09-0.75L45.09-0.75Q43.69-2.06 43.73-4.36L43.73-4.36Q44.06-8.63 47.81-8.81L47.81-8.81Q51-8.63 51.47-6L51.47-6L50.34-6Q49.88-7.78 47.77-7.83L47.77-7.83Q45.09-7.64 44.95-4.31L44.95-4.31Q44.95-0.75 47.81-0.75L47.81-0.75Q48.84-0.75 49.59-1.31L49.59-1.31Q50.53-2.06 50.48-3.61L50.48-3.61ZM57.89-5.06L62.39-5.06L62.39-8.58L63.56-8.58L63.56 0L62.39 0L62.39-3.98L57.89-3.98L57.89 0L56.72 0L56.72-8.58L57.89-8.58L57.89-5.06ZM66.66-1.03L71.81-1.03L71.81 0L65.48 0L65.48-8.58L71.72-8.58L71.72-7.59L66.66-7.59L66.66-4.92L71.34-4.92L71.34-3.89L66.66-3.89L66.66-1.03ZM80.06-8.58L77.16-4.41L80.20 0L78.75 0L76.41-3.52L74.06 0L72.66 0L75.75-4.41L72.84-8.58L74.30-8.58L76.45-5.30L78.66-8.58L80.06-8.58ZM81.47-8.58L82.64-8.58L82.64 0L81.47 0L81.47-8.58ZM86.02-8.58L90.33-1.64L90.33-8.58L91.45-8.58L91.45 0L90.14 0L85.78-6.94L85.73-6.94L85.73 0L84.61 0L84.61-8.58L86.02-8.58Z" transform="translate(-0.890625, 8.8125)"></path></g></g></g></g></g><defs v-gra="od"></defs></svg>